<?xml version="1.0" encoding="UTF-8"?>
<!DOCTYPE svg PUBLIC "-//W3C//DTD SVG 1.1//EN" "http://www.w3.org/Graphics/SVG/1.1/DTD/svg11.dtd">
<!-- Creator: CorelDRAW -->
<svg xmlns="http://www.w3.org/2000/svg" xml:space="preserve" width="95.25mm" height="169.333mm" version="1.1" style="shape-rendering:geometricPrecision; text-rendering:geometricPrecision; image-rendering:optimizeQuality; fill-rule:evenodd; clip-rule:evenodd"
viewBox="0 0 9525 16933.32"
 xmlns:xlink="http://www.w3.org/1999/xlink"
 xmlns:xodm="http://www.corel.com/coreldraw/odm/2003">
 <defs>
  <style type="text/css">
   <![CDATA[
    .str1 {stroke:white;stroke-width:42.33;stroke-miterlimit:22.9256}
    .str0 {stroke:white;stroke-width:42.33;stroke-linecap:round;stroke-miterlimit:22.9256}
    .fil0 {fill:none}
    .fil1 {fill:white}
   ]]>
  </style>
 </defs>
 <g id="Camada_x0020_1">
  <metadata id="CorelCorpID_0Corel-Layer"/>
  <path class="fil0 str0" d="M7792.88 10699.97c114.99,-48.63 137.88,-91.15 122.57,-204.3 -175.52,-286.88 -397.4,88.08 -122.57,204.3z"/>
  <path class="fil0 str0" d="M6281.11 4755.07c142.68,233.22 274.41,2.73 254.6,-81.71 -45.71,-194.79 -249.58,-148.68 -254.6,81.71z"/>
  <path class="fil0 str0" d="M2174.85 8289.32c129.61,-54.8 258.14,-248.57 61.29,-306.44 -165.6,16.33 -243.08,195.22 -61.29,306.44z"/>
  <path class="fil0 str0" d="M6648.84 9126.92c0,137.17 15.88,150.54 143.01,204.29 201.63,-139.29 59.23,-320.47 -143.01,-204.29z"/>
  <path class="fil0 str0" d="M4885.64 3262.47c113.6,13.41 238.23,-4.1 303.32,-53.29 -98.83,-11.66 -249.83,7.41 -303.32,53.29z"/>
  <path class="fil0 str0" d="M3931.76 1322.98c-42.52,-122.86 -63.76,-193.22 -20.43,-326.87"/>
  <path class="fil0 str0" d="M4769.36 689.67c184.32,-71.55 400.13,138.13 326.86,326.87m-224.72 -204.3l-102.14 -122.57 -306.44 0"/>
  <line class="fil0 str0" x1="3523.18" y1="1711.13" x2="3502.75" y2= "1649.84" />
  <line class="fil0 str0" x1="5218.8" y1="1956.28" x2="5606.96" y2= "1935.85" />
  <path class="fil0 str0" d="M3686.61 2140.14c-109.22,-29.03 -141.41,-63.03 -183.86,-163.43"/>
  <path class="fil0 str0" d="M3625.32 2242.29c-100.27,-81.33 -152.29,-101.76 -204.29,-224.72"/>
  <line class="fil0 str0" x1="4074.76" y1="2221.86" x2="4360.77" y2= "2160.57" />
  <line class="fil0 str0" x1="5239.23" y1="2426.15" x2="5525.23" y2= "2303.58" />
  <line class="fil0 str0" x1="5995.1" y1="2548.72" x2="6035.97" y2= "2487.44" />
  <line class="fil0 str0" x1="4156.48" y1="2610.01" x2="4381.2" y2= "2589.58" />
  <line class="fil0 str0" x1="4891.93" y1="2896.02" x2="4871.5" y2= "2896.02" />
  <line class="fil0 str0" x1="4994.08" y1="3386.32" x2="5157.51" y2= "3345.47" />
  <path class="fil0 str0" d="M8283.17 3794.91c-241.15,96.72 -385.22,-226.55 -469.87,-408.59"/>
  <path class="fil0 str0" d="M2236.14 3529.33l-20.43 -81.72m20.43 -81.71l-20.43 81.71 -198.59 150.25c-281.55,-7.25 -291.71,-236.79 -291.71,-456.69"/>
  <line class="fil0 str0" x1="7813.3" y1="3651.9" x2="7813.3" y2= "3611.04" />
  <path class="fil0 str0" d="M2746.87 3835.76c-79.23,121.15 -72.96,134.03 -204.29,204.29 -213.02,0 -306.44,-152.97 -306.44,-347.29"/>
  <line class="fil0 str0" x1="7466.01" y1="3999.2" x2="7445.57" y2= "3999.2" />
  <path class="fil0 str0" d="M2951.16 4816.37l-40.86 -265.58m40.86 -122.58l-40.86 122.58c-134.76,58.25 -82.1,124.76 -265.58,163.43 -258.07,-103.51 -165.46,-198.53 -286.01,-367.73m20.43 -122.57l-20.43 122.57c-85.09,92.18 -117.07,191.67 -245.14,204.3 -234.26,-67.37 -265.58,-571.96 -265.58,-796.74"/>
  <path class="fil0 str0" d="M3686.61 4755.07c117.83,108.79 155.28,126.47 245.15,-20.42 -30.48,-144.65 -87.92,-187.36 -224.72,-143.01"/>
  <line class="fil0 str0" x1="5239.23" y1="4898.08" x2="5239.23" y2= "4632.5" />
  <line class="fil0 str0" x1="1337.26" y1="4877.65" x2="1337.26" y2= "4836.8" />
  <path class="fil0 str0" d="M1378.12 8554.9c0,-426.06 193.09,-2993.7 40.85,-3207.38m-81.71 81.72l81.71 -81.72c80.37,-381.33 325.46,-655.13 367.73,-1205.32"/>
  <line class="fil0 str0" x1="8732.61" y1="6716.28" x2="8671.33" y2= "5470.1" />
  <line class="fil0 str0" x1="6710.12" y1="6205.55" x2="6832.7" y2= "5899.11" />
  <path class="fil0 str0" d="M5075.79 6021.69c88.9,145.3 197.59,157.29 265.58,0 -14.63,-148.39 -156.26,-276.94 -265.58,-102.15"/>
  <line class="fil0 str0" x1="3298.46" y1="7063.57" x2="3298.46" y2= "6430.27" />
  <line class="fil0 str0" x1="4544.63" y1="6736.71" x2="4585.5" y2= "6675.42" />
  <path class="fil0 str0" d="M4360.77 7206.58c0,-256.84 -11.1,-269.62 102.15,-490.3"/>
  <line class="fil0 str0" x1="4462.92" y1="7186.15" x2="4483.35" y2= "6859.28" />
  <path class="fil0 str0" d="M5382.23 7002.29c-65.01,226.06 -311.49,158.69 -408.58,0l-23.07 -224.62c98.56,-96.02 227.32,-211.94 329.51,-61.39 14.43,143.42 -120.34,60.86 -40.86,265.58"/>
  <path class="fil0 str0" d="M3584.47 7043.14c63.27,-109.63 41.06,-190.17 -102.15,-204.29 -130.57,37.55 -117.87,92.8 -81.72,204.29"/>
  <path class="fil0 str0" d="M3257.6 8575.33c-273.65,-167.42 -647.15,-719.52 -653.74,-1021.46"/>
  <path class="fil0 str0" d="M6424.12 7615.16l20.43 -81.72m20.43 -286.01l306.44 -408.58m265.57 367.73c126.58,-9.73 198.26,-58.29 224.72,-183.86 -139.85,-228.6 -270.41,-57.96 -224.72,183.86 -16.3,21.03 -520.18,291.68 -592.44,326.86 -31.45,-81.01 -6.99,-201.46 20.43,-286.01 -51.04,-139.31 122.57,-634.57 122.57,-858.02m61.29 -61.29l-61.29 61.29 0 -224.72"/>
  <path class="fil0 str0" d="M7445.57 7982.88c-235.23,-18.06 -247.55,-224.71 -694.58,-224.71"/>
  <path class="fil0 str0" d="M6056.4 8330.18l-143.01 -408.58m40.86 -61.29l-40.86 61.29c-235.05,86.12 25.76,-94.45 -102.15,-204.29m0 -61.29l0 61.29 -156.8 169.83c-359.14,-128.38 81.41,-196.88 -149.63,-353.7m-20.43 -102.14l20.43 102.14c-202.76,198.34 -129.52,31.28 -163.44,-61.28 -331.57,-331.57 -734.15,-55.97 -837.59,-163.43"/>
  <line class="fil0 str0" x1="6955.28" y1="7962.45" x2="6934.85" y2= "7962.45" />
  <path class="fil0 str0" d="M7731.58 9106.49c-63.83,-302.91 -365.35,-933.03 -653.73,-1103.18"/>
  <path class="fil0 str0" d="M6178.97 8779.63c89.44,-223.01 -46.93,-78.27 20.43,-286.01"/>
  <path class="fil0 str0" d="M8221.89 8636.62l-20.43 -61.29m-265.58 0c103.29,165.15 135,55.22 265.58,0l0 -163.43m-265.58 20.43c85.49,-125.96 149.72,-31.85 265.58,-20.43l-81.72 -715.02"/>
  <path class="fil0 str0" d="M2277 9167.78c290.97,48.64 369.69,-321.09 612.87,-469.88"/>
  <line class="fil0 str0" x1="1357.69" y1="8800.05" x2="1357.69" y2= "8718.33" />
  <line class="fil0 str0" x1="6587.55" y1="8738.77" x2="6526.27" y2= "8738.77" />
  <path class="fil0 str0" d="M7752.01 12988.03c-176.82,601.5 -163.51,-1996.99 -163.43,-2104.2 0.44,-579.69 -212.04,-2071.87 -898.88,-2124.63"/>
  <line class="fil0 str0" x1="8242.32" y1="9372.07" x2="8242.32" y2= "8779.63" />
  <line class="fil0 str0" x1="3155.45" y1="8902.2" x2="3135.03" y2= "8902.2" />
  <line class="fil0 str0" x1="2910.3" y1="8963.49" x2="3012.45" y2= "8922.63" />
  <line class="fil0 str0" x1="2603.86" y1="9229.07" x2="2603.86" y2= "9208.64" />
  <line class="fil0 str0" x1="2460.86" y1="9433.35" x2="2460.86" y2= "9412.93" />
  <path class="fil0 str0" d="M9100.34 11414.99c-70.05,-216.05 -183.86,-1210.19 -183.86,-1470.9"/>
  <path class="fil0 str0" d="M8446.6 10577.39c50.33,266.35 356.7,1187.06 633.31,1266.61 32.99,-105.96 -400.96,-1284.36 -408.58,-1634.33"/>
  <line class="fil0 str0" x1="1296.4" y1="10740.82" x2="1296.4" y2= "10699.97" />
  <path class="fil0 str0" d="M8732.61 11619.28c-209.61,-128.25 -257.35,-343.46 -367.72,-429.02m-531.16 1470.9l163.43 -1716.04m81.72 -429.01l-81.72 429.01c187.28,55.05 79.74,245.14 367.73,245.14 -20.53,-108.65 -218.35,-623.43 -286.01,-674.15l143.01 -1001.03"/>
  <line class="fil0 str0" x1="9120.77" y1="11537.56" x2="9120.77" y2= "11517.13" />
  <line class="fil0 str0" x1="3073.73" y1="11741.85" x2="3073.73" y2= "11680.57" />
  <line class="fil0 str0" x1="4299.49" y1="750.96" x2="4340.34" y2= "689.67" />
  <line class="fil0 str0" x1="6628.41" y1="12477.3" x2="6771.42" y2= "12191.29" />
  <line class="fil0 str0" x1="5239.23" y1="730.53" x2="5096.22" y2= "689.67" />
  <path class="fil0 str0" d="M6546.69 12640.73l20.43 -40.85m-20.43 81.71l0 -40.86c-120.58,-103.54 -27.15,-428.33 0,-572.01"/>
  <path class="fil0 str0" d="M928.67 13049.32c0,130.68 -35.31,240.87 61.29,306.44 190.59,-56.03 241.05,-485.3 306.44,-653.73"/>
  <path class="fil0 str0" d="M3400.6 13457.91c0,-293.45 -77.79,-453.04 -81.71,-633.31m-326.87 -490.3c48.8,121.67 222.94,421.42 326.87,490.3 245.26,-204.38 -205.92,-735.88 -224.73,-980.6"/>
  <path class="fil0 str0" d="M2624.29 13560.05c221.66,-118.58 393.93,-247.21 653.74,-143"/>
  <line class="fil0 str0" x1="6628.41" y1="13866.49" x2="6587.55" y2= "13866.49" />
  <path class="fil0 str0" d="M6117.68 14785.8c43.82,-231.91 43.27,-200 0,-429.01"/>
  <path class="fil0 str0" d="M6117.68 15030.95l20.43 -81.72m-3170.41 1639.62c0,-788.39 -16.54,-947.54 -16.54,-1762.19m2696.65 20.42l0 -61.28m-2022.49 20.43c-79.43,92.5 -526.02,20.43 -674.16,20.43 -611.94,-198.42 -428.22,-375.06 -694.59,-551.59m3983.69 510.73c60.76,-321.61 103.35,-472.98 -204.29,-674.17m-1287.04 755.89c-116.33,233.75 -334.66,12.31 -531.16,42.2 -467.48,71.1 -256.14,-39.95 -592.45,-103.49 0,-208.01 122.47,-539.16 245.16,-694.6m960.16 -102.14l-40.85 -20.43m-1246.18 -122.57c-3.37,-154.71 -94.44,-217.01 -204.3,-326.87 -361.02,0 -436.63,171.06 -674.16,408.58m531.16 694.6c0,-305.85 127.6,-559.38 388.16,-735.45m-469.87 776.3c0,-302.29 72.64,-742.06 429.01,-817.16l40.86 40.86 286.01 204.28c192.55,-62.43 546.33,-155.55 715.02,-224.71m1838.62 -20.43l-102.15 0m-715.01 367.72l429.01 -122.58 286 -245.14 143.01 -204.3m510.73 81.72c-334.1,-133.99 -165.41,-89.24 -510.73,-81.72 0,-324.48 -26.21,-422.38 102.14,-735.45m-4371.84 878.46l0 -286.01m-122.57 -102.14l122.57 102.14c30.69,-79.06 48.28,-852.63 80.18,-1041.89 65.78,-390.27 144.22,-704.95 287.55,-1062.31m4187.98 3575.1c293.42,-231.58 665.1,-199.77 754.56,-796.74 48.83,-325.82 -39.59,-668.6 -39.54,-1001.03 0.05,-372.32 -26.41,-651.84 -61.93,-1001.03 -33.82,-332.39 -244.51,-811.78 -244.51,-1001.03m-4616.99 20.43l81.71 -469.87m2328.93 81.72c0,151.86 39.24,402.91 -122.58,449.44 -165.54,-112.36 -43.16,-471.84 -102.14,-653.73m-2022.49 735.45c264.32,-26.06 123.62,-648.07 429.02,-796.74m3452.52 0c-56.17,144.7 17.53,299.98 -122.57,408.59 -102.94,-85.78 -39.33,-311.61 -204.3,-490.31m-3084.8 -40.86l-40.85 122.58c52.5,82.76 -33.33,166.36 40.85,347.29 123.26,-81.68 174.29,-369.17 286.01,-510.72m1552.62 224.72c161.59,161.59 333.62,386.34 531.15,469.87 205.72,-205.72 408.59,-425.45 408.59,-715.02m-1266.61 245.15l-506.2 434.36c-250.33,-166.09 -472.43,-408.35 -494.83,-699.94m1920.35 -183.87c-54.27,257.46 -390.99,355.76 -592.45,449.45l-286.01 0 -40.86 0c-202.32,-159.69 -427.22,-210.35 -531.16,-510.73m2083.78 0l20.42 367.72 -306.43 -102.14 -347.29 -204.3c-90.48,-114.62 -61.3,-157.49 -61.3,-306.43m-2737.5 776.31c-58.26,142.09 -102.15,540.78 -102.15,715.02l-143 61.29 -20.43 -204.3c-296.69,-201.37 256.54,-1047.43 367.72,-1368.75m572.02 306.44l-20.43 245.15 224.72 -40.86 469.87 -245.15c134.53,-124.2 163.44,-144.21 163.44,-347.3m1716.05 -694.59c-94.47,235.55 -490.09,795.98 -490.31,796.74 -8.42,0.65 -16.6,1.56 -24.54,2.72m-1189.6 -101.66c-3.83,-1.09 -7.69,-2.16 -11.6,-3.21 -5.26,-18.27 -325.92,-540.43 -367.73,-612.87 -273.43,-106.15 -541.43,-671.62 -265.58,-858.03m2533.22 -20.43l-61.29 20.43m163.43 -20.43l0 -81.71m-286 817.16l0 61.29c320.02,-6.97 343.61,-579.99 286,-796.74l-102.14 0c99.48,-526.51 156.18,-689.9 -127.51,-1164.46 -202.12,-338.11 -727.7,-634.09 -1118.67,-633.3 -415.1,0.84 -902.77,267.84 -1108.75,633.3 -272.5,483.48 -178.29,657.79 -178.29,1184.89 306.04,142.32 102.25,-209.2 176.27,-469.87 130.52,-459.68 476.48,-379.58 518.32,-510.72m-1470.9 2349.35c-115.92,-82.59 -205.91,-46.02 -205.91,102.14 0,184.98 118.18,76.59 205.91,81.72 -5.97,-128.43 243.16,-204.29 388.16,-204.29 181.98,181.98 108.71,278.94 183.86,510.73 287.97,-89.7 -163.43,-2530.61 -163.43,-2962.23m3248.23 3289.09l20.43 81.72c246.43,150.76 462.33,585.89 572.02,633.3 0,-387.35 -119.16,-474.34 -231.7,-796.73 -92.21,-264.15 -51.05,-624.33 -299.46,-776.31l-183.86 -16.35c-161.88,117.59 -171.31,332.09 -204.29,506.65 -333.54,-33.62 -97.34,-756.89 -81.72,-960.17m-653.73 5658.88l143 -20.43c60.95,-157.01 28.99,-415.48 -40.85,-551.59 -65.05,-12.29 -773.69,-445.42 -1021.46,-531.16l0 183.87c136.18,44.15 123.6,-26.87 204.29,102.14 -61.81,210.25 -398.05,64.73 -531.16,265.58 193.03,137.52 464.71,-167.42 633.3,102.15 -131.76,103.99 -277.36,42.56 -449.44,122.57 100.99,148.8 273.39,4.01 367.72,143.01 -141.6,213.67 -386.19,-39.51 -490.29,81.71 48.65,156.18 301.38,113.89 429.01,163.44 121.83,-24.27 219.01,61.39 367.72,33.96 127.68,-23.55 245.73,-51.77 367.73,-74.82 20.54,208.35 453.61,204.29 633.3,204.29 143.84,55.84 474.56,-37.4 633.31,-40.86 0,238.61 -50.74,1480.48 -102.63,1570.37m-5985.26 -3388.56c129.01,-241.17 222.4,-574.89 326.86,-755.88m960.17 -183.87c-60.05,-84.28 -61.29,-357.01 -61.29,-469.87m0 -245.15l0 245.15c144.38,-41.52 180.95,-227.3 0,-245.15 0,-200 50.95,-1187.77 -40.85,-1266.61m-796.74 2165.5l-61.29 0c10.52,-136.94 150.52,-604.64 182.32,-796.74 41.89,-253 40.69,-580.16 177.92,-777.65 194.79,-280.33 392.64,-1452.83 518.21,-1592.14m-1225.74 3432.1c45.53,-592.74 202.68,-1264.67 264.9,-1899.91 20.5,-209.23 125.62,-1866.32 164.11,-1920.34m265.58 1144.03c-119.82,-207.6 -145.63,-1062.61 -265.58,-1144.03l0 -102.14c-60.1,-51.61 -40.86,-15.47 -40.86,-122.58m0 0l-40.86 -122.58m0 0c-102.25,-541.15 -56.04,-610.78 40.86,-1123.6m204.29 -449.44c-22.74,107.89 -128.61,390.78 -204.29,449.44 -127.71,-109.67 -36.06,-2003.92 -122.58,-2226.78m0 0c8.15,-106.07 235.56,-677.6 283.88,-919.31 47.23,-236.27 63.42,-663.98 63.42,-919.32m163.43 7599.66c194.3,-60.53 286.87,-563.98 429.02,-674.17l20.42 -1001.03c0,-259.69 64.13,-835.08 103.5,-1103.17 50.63,-344.77 202.94,-766.11 202.94,-1103.18m5863.17 183.86c-109.1,-577.43 -281.45,-1130.69 -469.87,-1675.18m-4882.57 81.71c-2.3,105.58 -190.66,571.96 -238.34,715.02 -45.7,137.11 -180.95,667.72 -272.39,694.59 -36.67,-184.04 102.15,-1270.38 102.15,-1613.9m5434.16 -326.87l20.42 20.43m-6373.89 4984.72l-20.43 -102.15c167.56,-129.88 395.81,-2117.85 462.98,-2492.36 70.27,-391.89 109.03,-849.87 109.03,-1266.6 0,-226.74 -35.25,-1123.19 20.43,-1266.61m1123.61 -40.86l-40.86 -20.43m-551.59 388.15l-183.86 122.58c-255.45,-25.19 -206.86,-354.12 -347.3,-449.44l0 -306.44m3513.82 -20.43l-20.43 -122.57m-510.73 61.28l0 -61.28m-265.58 81.71l20.43 -143m1021.46 224.72l-61.29 -245.15m1532.19 265.58c133.55,123.29 152.32,102.15 326.87,102.15 206.99,-207 183.86,-289.55 183.86,-572.02m-5168.58 898.88l-40.86 163.43c127.65,86.65 26.64,269.91 224.72,326.87l367.73 -694.59c90.88,-56.85 250.39,-311.68 367.72,-429.01 170.04,-170.04 306.11,-207.09 449.45,-347.3m4290.12 694.59c-2.69,123.49 -62.6,222.95 -163.44,286.01 -137.16,53.25 -145.04,4.97 -265.58,-20.43 0,199.67 39.59,343.17 -163.43,429.02 -160.38,-267.79 -314.93,-560.84 -551.59,-796.75 -144.89,-144.43 -751.23,-613.63 -776.3,-653.72m2002.06 122.57l-180.91 206.88c-301.65,-2.59 -172.16,-93.87 -391.11,-186.45l-40.86 -163.43m-40.86 0l40.86 0c103.42,-105.73 113.6,-164.47 163.44,-286.01m-3575.11 286.01c143.38,234.35 367.31,282.21 449.44,388.15l245.15 61.29 510.73 0c51.5,-61.81 110.31,-79.68 204.29,-81.72 95.17,-152.16 347.4,-222.86 367.72,-429.02m-1634.33 0c181.57,-104.78 204.3,-104.56 204.3,-347.29m1307.46 286.01c-200.47,-97.59 -75.51,-255.16 -143,-429.01m-1654.77 -469.87c21.84,23.65 481.7,598.81 490.31,612.87 213.61,16.41 232.45,142.09 572.01,101.67 315.98,-37.62 343.7,-144.91 592.45,-244.67 136.3,-231.03 245.15,-358.43 245.15,-653.74m-2124.63 20.43c83.34,83.35 114.64,152.58 224.71,163.44l-143 -449.45m-61.28 0l61.28 0c-63.39,-300.77 -189.66,-434.88 -163.43,-776.31m2533.21 -183.86c219.05,277.54 58.93,1144.45 -326.86,1225.75 20.97,-72.96 117.18,-225.07 163.43,-367.72m-224.72 -122.58l0 -61.28m-61.29 -449.45c138.04,-53.58 195.47,-38.49 265.58,-204.29m-367.72 40.86l-40.86 -61.29m-163.44 -183.86l163.44 183.86c158,-96.66 204.29,-208.39 204.29,-388.15m-1613.9 245.15c-121.05,160.45 -222.72,157.69 -408.59,122.57 -159.79,-159.79 -183.32,-195.22 -143,-408.58m1940.77 -81.72c14.84,193.19 9.08,174.79 -143.01,326.87 -185.71,0 -200.12,-34.43 -347.29,-122.57 -315.93,126.7 -213.71,26 -469.87,20.42 -238.79,158.25 -99.81,168.3 -429.01,143.01 -140.04,-140.04 -240.84,-190.04 -245.15,-388.16m2206.34 1041.89c24.6,130.17 28.53,302.88 -122.57,347.3 2.71,-124.27 48.94,-139.52 0,-265.58l-224.72 81.72 -61.29 -449.45 -102.14 -163.43c155.72,-32.82 199.88,-155.21 245.14,-286.01m2267.65 2635.36l-20.43 163.44c144.39,202.67 274.08,1128.52 735.45,1225.75 3.67,-10.04 -291.06,-1555.51 -326.87,-1736.48 -112.16,-566.76 -249.82,-1268.59 -584.85,-1736.48 -657.74,-918.57 -1822.95,-22.46 -1562.34,1266.61 136.93,677.31 -2.74,441.18 -263.45,858.03l-245.16 -81.73 -122.57 -61.28c-144.67,544.34 -1312.82,531.75 -1511.76,61.28l-143 61.3 -347.29 81.71c-222.93,-364.37 -401.14,-315.38 -533.21,-837.6 -65.6,-259.38 22.47,-591.71 22.47,-858.02m347.3 61.29l143.01 367.72c-248.84,-24.54 -220.87,-372.23 -490.31,-429.01l-20.43 -245.15m204.3 143l-204.3 -143 -40.85 -245.15m183.86 -653.73c7.03,-322.65 283.45,-405.05 510.73,-510.74 222.02,-456.07 993.1,-582.22 1389.18,-362.68 274.87,152.37 495.48,103.94 640.39,464.83 70.63,175.88 267.27,583.81 278.92,735.45 -108.54,137.52 -50.32,220.17 -224.72,326.87m-4719.13 2655.79c0,-736.7 -107.95,-1546.31 147.76,-2206.35 137.06,-353.76 354.84,-849.35 771.55,-953.89 724.93,-181.87 731.66,312.39 1021.46,504.45 76.75,-191.37 94.37,-627.42 183.86,-653.73l81.72 245.15m-1613.91 11808.05c25.3,133.91 89.93,413.37 245.15,429.02l61.29 469.87c-308.08,-6.72 -425.08,-734.52 -429.21,-980.6 -8.01,-477.38 92.97,-674.34 122.77,-1062.32 311.66,-394.87 244.14,-2971.47 1266.61,-3186.95"/>
  <path class="fil1 str0" d="M4793.78 12875.53c130.37,-98.35 532.84,-520.08 612.05,-663.6 112.56,-203.96 117.92,-549.85 -308.69,-549.85 -118.63,0 -190.11,75.03 -284.41,132.73 -327.16,-327.16 -730.88,-158.58 -681.52,208.56 30.12,223.97 449.18,741.61 662.57,872.16z"/>
  <line class="fil0 str0" x1="5127.15" y1="9505.61" x2="4820.71" y2= "9505.61" />
  <line class="fil0 str0" x1="5004.57" y1="9607.75" x2="4943.28" y2= "9607.75" />
  <path class="fil0 str0" d="M5806.34 9473.27c-69.63,104.79 -139.27,209.58 -193.24,282.77 -53.97,73.2 -92.29,114.8 -150.35,159.04 -58.05,44.24 -135.84,91.13 -198.72,125.76 -62.87,34.64 -110.82,57.02 -151.85,68.21 -41.03,11.19 -75.13,11.19 -113.49,10.65 -38.37,-0.53 -80.99,-1.6 -123.62,-6.39 -42.63,-4.79 -85.25,-13.33 -128.95,-31.44 -43.69,-18.11 -88.44,-45.82 -139.06,-80.99 -50.62,-35.16 -107.1,-77.79 -155.94,-119.14 -48.83,-41.36 -90.02,-81.44 -122.47,-121.86 -32.45,-40.41 -56.17,-81.17 -79.89,-121.93"/>
  <path class="fil0 str1" d="M8732.61 6716.28c28.75,289.28 57.51,578.58 80.09,880.72 22.57,302.14 38.98,617.15 52.1,899.33 13.13,282.19 22.98,531.57 41.02,726.8 18.05,195.23 44.3,336.33 47.44,447.46 3.14,111.14 -16.82,192.32 -36.78,273.5"/>
  <path class="fil0 str0" d="M8037.39 5697.78c79.89,174.06 159.79,348.11 222.56,629.17 62.77,281.06 108.42,669.12 141.24,980.14 32.81,311.02 52.79,545 65.63,754.72 12.84,209.73 18.55,395.2 25.68,600.64 7.13,205.45 15.7,430.86 19.98,547.85 4.28,116.99 4.28,125.55 8.55,198.31 4.28,72.76 12.84,209.73 21.4,346.69"/>
 </g>
</svg>
