<?xml version="1.0" encoding="UTF-8"?>
<!DOCTYPE svg PUBLIC "-//W3C//DTD SVG 1.1//EN" "http://www.w3.org/Graphics/SVG/1.1/DTD/svg11.dtd">
<!-- Creator: CorelDRAW -->
<svg xmlns="http://www.w3.org/2000/svg" xml:space="preserve" width="95.25mm" height="169.333mm" version="1.1" style="shape-rendering:geometricPrecision; text-rendering:geometricPrecision; image-rendering:optimizeQuality; fill-rule:evenodd; clip-rule:evenodd"
viewBox="0 0 9525 16933.32"
 xmlns:xlink="http://www.w3.org/1999/xlink"
 xmlns:xodm="http://www.corel.com/coreldraw/odm/2003">
 <defs>
  <style type="text/css">
   <![CDATA[
    .str1 {stroke:white;stroke-width:42.33;stroke-miterlimit:22.9256}
    .str0 {stroke:white;stroke-width:42.33;stroke-linecap:round;stroke-miterlimit:22.9256}
    .fil0 {fill:none}
   ]]>
  </style>
 </defs>
 <g id="Camada_x0020_1">
  <metadata id="CorelCorpID_0Corel-Layer"/>
  <g id="_2203807236480">
   <path class="fil0 str0" d="M5111.45 13489.95c115.24,-86.93 470.99,-459.71 541.01,-586.57 99.49,-180.29 104.23,-486.02 -272.87,-486.02 -104.85,0 -168.03,66.32 -251.38,117.32 -289.18,-289.19 -646.05,-140.17 -602.41,184.34 26.62,197.98 397.03,655.53 585.65,770.93z"/>
   <path class="fil0 str0" d="M4374.05 3300.36l-67.04 -268.14m-67.04 150.83c44.87,66.4 54.34,94.39 134.08,117.31 128.32,41.61 254.48,10.28 284.9,-134.07 -19.43,-92.19 -40.39,-98.85 -117.31,-150.83"/>
   <line class="fil0 str0" x1="5212" y1="3350.64" x2="5195.25" y2= "3317.12" />
   <line class="fil0 str0" x1="5094.69" y1="3467.96" x2="5144.97" y2= "3400.92" />
   <line class="fil0 str0" x1="2312.67" y1="3434.44" x2="2312.67" y2= "3417.68" />
   <line class="fil0 str0" x1="3368.49" y1="3568.51" x2="3402.01" y2= "3501.48" />
   <line class="fil0 str0" x1="2346.19" y1="3568.51" x2="2329.43" y2= "3518.23" />
   <line class="fil0 str0" x1="2480.26" y1="3635.55" x2="2429.98" y2= "3568.51" />
   <line class="fil0 str0" x1="3552.84" y1="3669.07" x2="3536.09" y2= "3618.79" />
   <line class="fil0 str0" x1="2983.03" y1="3719.35" x2="2966.27" y2= "3719.35" />
   <line class="fil0 str0" x1="3217.66" y1="3803.14" x2="3050.07" y2= "3769.62" />
   <line class="fil0 str0" x1="2781.92" y1="3970.73" x2="2781.92" y2= "3903.69" />
   <line class="fil0 str0" x1="7189.59" y1="4121.56" x2="7189.59" y2= "4104.81" />
   <line class="fil0 str0" x1="7072.27" y1="5814.24" x2="7072.27" y2= "5780.72" />
   <line class="fil0 str0" x1="6150.52" y1="5898.04" x2="6150.52" y2= "5864.52" />
   <line class="fil0 str0" x1="7105.79" y1="6065.63" x2="6971.72" y2= "5931.56" />
   <path class="fil0 str0" d="M7323.66 6182.94c-88.13,-88.12 -142.96,-117.73 -167.59,-234.62"/>
   <path class="fil0 str0" d="M6804.12 6635.44c-85.86,-214.1 1.18,-334.01 -167.59,-502.77"/>
   <path class="fil0 str0" d="M6016.45 6199.7c39.14,-113.12 134.07,-284.02 134.07,-33.52"/>
   <path class="fil0 str0" d="M7541.53 6333.78c-153,49.6 -252.59,-15.84 -335.18,-150.84"/>
   <line class="fil0 str0" x1="6033.2" y1="6317.02" x2="6033.2" y2= "6300.26" />
   <path class="fil0 str0" d="M6653.29 6668.96c-3.72,-12.94 -137.4,-253.24 -150.83,-268.15"/>
   <line class="fil0 str0" x1="6938.2" y1="6752.75" x2="7005.23" y2= "6702.48" />
   <path class="fil0 str0" d="M7524.77 6903.59c-190.27,-61.69 -194.19,-16.76 -368.7,-16.76"/>
   <line class="fil0 str0" x1="6837.65" y1="7205.25" x2="7021.99" y2= "6937.11" />
   <line class="fil0 str0" x1="7306.9" y1="7054.42" x2="7089.03" y2= "7004.14" />
   <path class="fil0 str0" d="M6787.36 7305.81c-154.03,138.85 -248.11,-67.49 -251.38,-217.87"/>
   <line class="fil0 str0" x1="7189.59" y1="7138.22" x2="7089.03" y2= "7087.94" />
   <line class="fil0 str0" x1="8077.82" y1="7523.68" x2="7994.03" y2= "7372.85" />
   <line class="fil0 str0" x1="5496.91" y1="7456.64" x2="5496.91" y2= "7406.37" />
   <path class="fil0 str0" d="M5480.15 7942.66c-64.23,-160.15 -163.9,-202.39 -301.66,-284.91"/>
   <path class="fil0 str0" d="M3385.25 7674.51l0 -16.76m-385.46 -435.74c67.87,103.79 263.86,423.75 385.46,435.74l-167.59 -502.77"/>
   <path class="fil0 str0" d="M5379.59 7925.9c-95.94,-141.98 -250.78,-247.72 -418.97,-251.39"/>
   <line class="fil0 str0" x1="3854.51" y1="8294.6" x2="3854.51" y2= "8261.08" />
   <path class="fil0 str0" d="M6016.45 8713.58c53.11,-99.29 100.55,-179.3 100.55,-301.67"/>
   <line class="fil0 str0" x1="3720.44" y1="8948.21" x2="3703.68" y2= "8780.62" />
   <line class="fil0 str0" x1="3737.2" y1="9065.52" x2="3720.44" y2= "8948.21" />
   <line class="fil0 str0" x1="3753.96" y1="9166.08" x2="3737.2" y2= "9065.52" />
   <line class="fil0 str0" x1="3787.47" y1="9333.67" x2="3753.96" y2= "9166.08" />
   <line class="fil0 str0" x1="6988.48" y1="9233.11" x2="6988.48" y2= "9199.6" />
   <line class="fil0 str0" x1="2949.52" y1="9283.39" x2="2932.76" y2= "9283.39" />
   <line class="fil0 str0" x1="3871.27" y1="9719.13" x2="3787.47" y2= "9333.67" />
   <path class="fil0 str0" d="M4122.66 9551.54c-72.06,-78.05 -96.54,-95.9 -33.52,-184.35m16.76 16.76l-16.76 -16.76 -83.8 -100.56"/>
   <line class="fil0 str0" x1="6670.05" y1="9802.93" x2="6871.16" y2= "9484.5" />
   <line class="fil0 str0" x1="3200.9" y1="9568.3" x2="3117.11" y2= "9568.3" />
   <path class="fil0 str0" d="M2195.35 10741.44c57.17,-302.55 2.61,-317.41 188.26,-620.09 103.39,-168.56 353.86,-478.38 549.15,-519.53"/>
   <line class="fil0 str0" x1="8061.06" y1="2562.96" x2="7977.27" y2= "2495.92" />
   <line class="fil0 str0" x1="3251.18" y1="9819.69" x2="3200.9" y2= "9819.69" />
   <path class="fil0 str0" d="M2279.15 10523.57c163.54,-250.08 491.02,-663.05 804.44,-687.13"/>
   <line class="fil0 str0" x1="5245.52" y1="10151.52" x2="4994.13" y2= "10151.52" />
   <line class="fil0 str0" x1="5144.97" y1="10235.32" x2="5094.69" y2= "10235.32" />
   <path class="fil0 str0" d="M7742.64 12165.97c-64.54,-341.57 -127.15,-734.63 -234.63,-1055.83 -110.93,-331.48 -380.56,-797.64 -837.96,-620.09"/>
   <path class="fil0 str0" d="M3938.3 3082.5c-61.72,-38.61 -217.35,-379.68 -67.03,-335.19"/>
   <line class="fil0 str0" x1="2145.07" y1="11076.63" x2="2161.83" y2= "10925.79" />
   <line class="fil0 str0" x1="2027.76" y1="12031.9" x2="2111.56" y2= "11294.49" />
   <line class="fil0 str0" x1="2631.09" y1="12417.36" x2="2597.57" y2= "12015.14" />
   <line class="fil0 str0" x1="3670.16" y1="12584.95" x2="3552.84" y2= "12065.42" />
   <line class="fil0 str0" x1="1843.41" y1="12970.41" x2="2011" y2= "12115.69" />
   <line class="fil0 str0" x1="2698.13" y1="12786.06" x2="2681.37" y2= "12685.51" />
   <line class="fil0 str0" x1="3653.4" y1="12987.17" x2="3670.16" y2= "12769.3" />
   <path class="fil0 str0" d="M3519.33 12970.41c-157.23,-3.42 -208.12,-74.04 -318.43,-184.35"/>
   <path class="fil0 str0" d="M6854.4 13657.54c127.04,-53.72 220.44,-131.1 385.46,-67.04"/>
   <path class="fil0 str0" d="M6804.12 13858.65c219.98,-143.86 231.71,-92 452.5,-50.28"/>
   <path class="fil0 str0" d="M5312.56 14763.64c-192.53,-14.79 -336.72,-201.1 -720.64,-201.1"/>
   <line class="fil0 str0" x1="2178.59" y1="2898.15" x2="2178.59" y2= "2814.35" />
   <path class="fil0 str0" d="M3368.49 3099.26c-433.99,-250.49 -823.17,229.44 -1055.82,-150.84"/>
   <path class="fil0 str0" d="M2614.33 3786.38c-173.62,-13.34 -352.26,-179.92 -432.38,-335.18 -70.79,-137.17 -3.36,-290.15 -3.36,-469.26"/>
   <path class="fil0 str0" d="M2983.03 13724.58c319.65,-24.56 358.29,45.3 586.57,50.27 220.65,337.39 37.13,572.49 134.08,871.48 248.1,52.29 299.82,201.97 720.64,201.11 250.62,-0.51 471.3,-15.97 720.65,-16.76 148.08,-0.47 182.65,50.38 351.94,50.28 142.99,-0.09 244.17,-33.34 368.7,-33.52 413.88,-0.61 557.74,-166.63 737.41,-184.35l-67.04 351.94c149.81,91.66 386.55,329.05 351.94,502.78 257.95,-19.82 281.66,-376.2 418.98,-418.98 0,-68.92 229.93,-601.76 273.8,-804.44 58.09,-268.34 111.66,-528.43 111.66,-821.2l83.8 0c0,-160.96 157.8,-624.01 211.82,-804.44 90.05,-300.78 89.84,-474 89.84,-804.45"/>
   <path class="fil0 str0" d="M6787.36 5730.45l-16.75 -100.56c40.66,-99.17 50.35,-271.69 184.35,-284.91l16.76 -33.51"/>
   <path class="fil0 str0" d="M7156.07 5831c0,-203.48 -97.55,-75.06 -184.35,-83.79 -101.16,-141.99 -28.07,-254.95 -16.76,-402.23"/>
   <path class="fil0 str0" d="M5647.74 5412.02c-118.48,-197.82 -263.23,-301.38 -335.18,-418.98l-167.59 -83.79c-6.19,-283.93 -170.65,-551.75 -33.52,-905"/>
   <path class="fil0 str0" d="M7139.31 1808.8l201.11 234.63c11.5,149.73 30.58,88.18 16.76,268.14 -340.33,208.22 -455.79,-98.78 -737.4,-217.87l-335.19 -418.97"/>
   <path class="fil0 str0" d="M8077.82 2378.61c-256.86,-48.53 -648.73,-326.44 -737.4,-335.18"/>
   <path class="fil0 str0" d="M6267.83 3116.02l201.11 201.1c171.34,72.46 374.09,277.78 569.81,134.08 200.75,-273.41 -303.09,-772.36 -502.77,-972.04 119.24,-147.01 83.8,-195.4 83.8,-385.46"/>
   <path class="fil0 str0" d="M8061.06 2965.18c-88.73,-88.73 -346.11,-341.45 -452.5,-351.94 -61.18,-102.17 -149.63,-232.9 -251.38,-301.67"/>
   <polyline class="fil0 str0" points="8463.54,3601.31 7608.56,2831.11 7608.56,2613.24 "/>
   <path class="fil0 str0" d="M7608.56 2831.11c-92.7,73.17 -114.85,50.28 -234.62,50.28l-67.04 -33.52"/>
   <path class="fil0 str0" d="M7929.36 3688.16l-287.28 -253.72c-87.82,-214.21 -190.34,-369.06 -268.14,-553.05"/>
   <path class="fil0 str0" d="M7055.51 4708.14l150.84 16.75c44.56,154.98 281.34,289.16 284.9,452.5 -108.04,-8.3 -181.23,-51.28 -301.66,-54.83 -92.46,-2.72 -195.1,21.32 -301.67,21.32l-268.14 -418.99c267.03,-83.17 -72.27,-553.75 -83.8,-703.88 294.81,-6.43 -65.19,-618.97 -67.04,-703.89"/>
   <path class="fil0 str0" d="M8019.67 4660.82l-779.81 -673.33c120.49,-79.84 55.84,-200.32 33.52,-318.42l184.35 33.52c172.44,-3.76 184.35,-123.15 184.35,-268.15"/>
   <path class="fil0 str0" d="M4558.4 2646.76c469.14,88.64 608.11,88.07 569.81,586.57 150.26,0 114.86,6.09 217.87,83.79 99.27,-85.25 -2.51,-571.39 -31.87,-687.12 -80.99,-319.33 -171.03,-471.55 -420.63,-720.65 -1034.15,-1032.04 29.14,-2448.65 2027.86,-882.58 198.57,155.59 1404.72,1299.92 1581.07,1407.81"/>
   <path class="fil0 str0" d="M4105.9 4289.16l-16.76 -50.28 33.52 0 184.35 150.83c82.31,-137.42 319.83,-786.16 351.94,-938.51l318.42 67.03 -19.81 -150.36 170.65 -134.54"/>
   <polyline class="fil0 str0" points="4977.37,3518.23 5195.25,3568.51 5312.56,3602.03 5346.08,3317.12 "/>
   <path class="fil0 str0" d="M4742.75 2965.18c77.13,97.73 58.61,92.67 50.27,201.11 102.97,-7.91 128.66,-51.66 184.35,-134.07 0,-133.75 -62.9,-216.79 -184.35,-268.15"/>
   <path class="fil0 str0" d="M2497.02 2697.03c527.2,-170.94 769.99,16.76 1206.66,16.76 0,313.55 87.57,240.4 184.35,469.26l201.11 -33.52c17.33,-225.58 -23.03,-365.22 -251.39,-519.53"/>
   <path class="fil0 str0" d="M4474.6 2646.76c-18.78,-70.67 -74.24,-194.98 -134.07,-234.63 -488.14,-1217.1 -2059.16,-636.66 -2078.14,234.63 279.34,-58.87 283.3,-184.7 720.64,-184.37 229.74,0.16 520.42,104.06 720.65,184.37l67.04 -83.8"/>
   <line class="fil0 str0" x1="2245.63" y1="2697.03" x2="2262.39" y2= "2646.76" />
   <line class="fil0 str0" x1="3703.68" y1="2713.79" x2="3703.68" y2= "2646.76" />
   <line class="fil0 str0" x1="4340.53" y1="2412.13" x2="4407.56" y2= "2713.79" />
   <path class="fil0 str0" d="M3167.39 2864.63c167.46,35.29 293.53,242.12 385.45,251.39l-71.17 -114.34c-108.86,-115.98 -104.8,-138.04 -247.25,-187.33"/>
   <path class="fil0 str0" d="M3888.03 3183.05c-136.07,107.39 -225.83,42.32 -335.19,-67.03"/>
   <path class="fil0 str0" d="M4793.02 3166.29l-201.1 234.63c-138.94,0 -195.09,15.95 -318.43,-33.52l-184.35 -217.87"/>
   <line class="fil0 str0" x1="4658.95" y1="3451.2" x2="4591.92" y2= "3400.92" />
   <line class="fil0 str0" x1="5195.25" y1="3568.51" x2="5228.76" y2= "3501.48" />
   <path class="fil0 str0" d="M6619.78 4724.89c-203.01,-207.52 -368.34,-484.84 -586.55,-703.88 -284.7,-285.77 -442.02,-258.16 -720.67,-418.98"/>
   <line class="fil0 str0" x1="7273.38" y1="3669.07" x2="7223.11" y2= "3618.79" />
   <path class="fil0 str0" d="M4122.66 4238.88c122.24,-228.49 201.11,-208.26 201.11,-519.53"/>
   <path class="fil0 str0" d="M8041.07 4258.24c-99.43,-122.6 -573.04,-451.27 -583.34,-555.65"/>
   <path class="fil0 str0" d="M2429.98 3199.81c0,380.6 199.85,340.77 284.91,586.57 0,596.32 241.92,446.62 335.18,770.93 144.11,147.31 17.31,219.51 33.52,351.94 21.85,103.68 197.47,364.29 284.9,418.97 25.27,133.72 128.81,286.29 173.66,435.75 43.71,145.61 75.74,304.27 112.88,452.49 40.04,159.78 95.57,800.95 199.48,871.48l0 50.28c-40.01,115.64 -482.12,663.37 -553.05,670.36 -3.38,155.24 -621.47,814.35 -752.51,988.8 -293.26,390.41 -513.72,551.88 -718.16,1005.55 -144.71,321.13 -309.85,1923.44 -389.6,1977.58"/>
   <path class="fil0 str0" d="M4089.14 4238.88c-169.3,-101.4 -677.65,-702.24 -921.75,-653.61 10.95,142.56 132.58,163.17 167.58,284.91 -149.64,58.09 -349.67,-46.94 -502.77,-50.28l-117.31 -33.52"/>
   <line class="fil0 str0" x1="6535.98" y1="4021.01" x2="6401.9" y2= "3819.9" />
   <polyline class="fil0 str0" points="3117.11,4004.25 2932.76,3937.22 2848.96,3903.69 2832.2,3819.9 "/>
   <line class="fil0 str0" x1="2865.72" y1="4037.77" x2="2848.96" y2= "3903.69" />
   <polyline class="fil0 str0" points="3167.39,4138.32 3016.55,4088.05 2932.76,3937.22 "/>
   <line class="fil0 str0" x1="7239.86" y1="3987.49" x2="7139.31" y2= "4004.25" />
   <line class="fil0 str0" x1="3217.66" y1="4339.43" x2="3016.55" y2= "4088.05" />
   <path class="fil0 str0" d="M3787.47 4574.06c0,213.67 76.59,911.92 217.87,1005.55 65.84,-114.07 100.56,-771.21 100.56,-955.27 -140.81,-3.07 -257.63,-159.57 -368.7,-234.63l-251.39 0 -167.59 -50.28"/>
   <line class="fil0 str0" x1="4105.9" y1="4624.34" x2="4122.66" y2= "4389.71" />
   <path class="fil0 str0" d="M3368.49 5328.22c158.98,-275.46 124.41,-612.78 117.32,-938.51"/>
   <path class="fil0 str0" d="M5144.97 4909.25l-67.04 16.76c-141.19,-75.54 -698.17,-417.39 -770.92,-536.3"/>
   <path class="fil0 str0" d="M8262.3 5544.39c-572.51,-939.41 -872.7,-1129.53 -921.88,-1121.16l-100.56 -217.87"/>
   <path class="fil0 str0" d="M7206.35 4724.89c143.41,-116.31 134.07,-118.75 134.07,-301.66"/>
   <path class="fil0 str0" d="M2848.96 5814.24l67.04 50.28 -117.32 -754.16c65.89,-203.22 12.91,-391.9 251.39,-553.05"/>
   <path class="fil0 str0" d="M5312.56 4993.04c94.27,-87.02 151.99,-68.19 201.11,-184.35"/>
   <path class="fil0 str0" d="M6887.92 5143.88c-16.47,21.24 -432.92,299.69 -452.5,301.66 -19.27,-49.64 -139.77,-511.29 -150.83,-569.81"/>
   <path class="fil0 str0" d="M5496.91 5730.45c-25.11,-326.91 -316.85,-562.92 -418.98,-804.44"/>
   <path class="fil0 str0" d="M3301.46 7808.58c-532.49,-532.49 -1349.19,-2126.25 -502.78,-2698.22"/>
   <path class="fil0 str0" d="M3854.51 7087.94c128.4,-396.01 -112.23,-1604.54 -284.91,-1927.3"/>
   <path class="fil0 str0" d="M8061.06 5881.28l-67.03 -50.28c-143.16,-248.04 -134.24,-497.77 -502.78,-653.61"/>
   <path class="fil0 str0" d="M6770.61 5629.89c-154.61,75.26 -23.15,44.53 -134.08,167.59l-217.94 1.37c-65.57,69.74 -100.2,190.32 -184.28,216.5l0 -217.87c74.26,-23.69 199.09,-259.24 201.11,-351.94"/>
   <path class="fil0 str0" d="M5111.45 6266.74c-82.58,212.73 0,479.71 0,687.13 -150.14,-48.68 -305.41,-144.17 -452.5,-166.52 -207.96,-31.59 -298,54.09 -452.5,65.96l-201.11 -1273.7"/>
   <polyline class="fil0 str0" points="6234.31,5797.48 6203.16,5661.85 6150.52,5646.65 "/>
   <path class="fil0 str0" d="M8061.06 6015.35l-50.27 16.76c-20.56,-63.4 -38.76,-141.06 -16.76,-201.11"/>
   <line class="fil0 str0" x1="2932.76" y1="5948.32" x2="2916" y2= "5864.52" />
   <line class="fil0 str0" x1="6234.31" y1="6099.15" x2="6234.31" y2= "6015.35" />
   <path class="fil0 str0" d="M7725.88 6417.57c-85.37,-87.27 -67.04,-49.56 -67.04,-167.59 109.45,-63.16 335.6,-52.13 351.95,-217.87"/>
   <path class="fil0 str0" d="M6049.96 6568.41c-48.36,83.8 -10.74,77.25 -83.79,100.55 -156.87,-169.91 -20.37,-288.78 -16.62,-502.78 4.65,-265.76 78.89,-312.63 200.97,-519.53"/>
   <path class="fil0 str0" d="M5111.45 6953.87l150.83 184.35c121.41,0 248.59,-55.1 318.42,50.28 178.17,-57.78 168.09,-150.76 284.91,-184.36 25.31,-133.9 100.56,-191.32 100.56,-335.18"/>
   <path class="fil0 str0" d="M3854.51 7138.22c84.12,-29.11 304.87,-213.87 351.94,-284.91"/>
   <path class="fil0 str0" d="M8077.82 11478.85c0,-329.76 -83.93,-653.36 -197.04,-938.52 -53.8,-135.62 -186.84,-330.69 -188.58,-469.26 -3.95,-314.98 -160.28,-255.59 -241.18,-486.01 -85.76,-244.29 50.88,-606.4 -71.36,-955.28 -140.44,-400.85 -476.62,-480.44 -826.92,-687.12l0 -117.32c-185.06,34.97 -142.65,84.63 -351.95,16.76 -310.48,-310.48 -215.77,-530.35 -335.18,-837.96"/>
   <path class="fil0 str0" d="M3854.51 8294.6c1.97,90.5 29,237.48 100.55,284.91 167.69,-431.97 104.58,-488.89 536.3,-805.94 319.12,-234.36 443.8,-266.65 854.72,-266.65l-83.8 -368.7"/>
   <line class="fil0 str0" x1="5513.67" y1="7322.57" x2="5580.7" y2= "7188.5" />
   <path class="fil0 str0" d="M7608.56 6434.33c108.04,99.73 89.17,50.28 217.87,50.28 116.36,299.74 -286.29,509.01 -368.7,703.89l33.52 0 50.28 0c180.85,-166.96 721.38,-574.64 486.02,-905l50.27 -100.56"/>
   <path class="fil0 str0" d="M7826.43 6484.61c8.33,-82.57 128.98,-152.36 201.12,-201.11"/>
   <line class="fil0 str0" x1="7491.25" y1="7171.74" x2="7491.25" y2= "7188.5" />
   <path class="fil0 str0" d="M6552.74 7825.34c138.82,-109.57 315.84,-140.66 452.49,-252.49 153.59,-125.67 299.46,-260.22 452.5,-384.35"/>
   <line class="fil0 str0" x1="8077.82" y1="8931.45" x2="7541.53" y2= "7188.5" />
   <path class="fil0 str0" d="M6552.74 7942.66c-98.41,148.49 -354.08,97.55 -435.74,217.87 -55.75,-34.87 -178.98,-287.01 -318.42,-419.62 -164.94,-156.87 -269.2,-160.48 -452.5,-233.99"/>
   <path class="fil0 str0" d="M6133.76 9283.39l-50.28 100.56 -67.03 0 0 -150.84 167.58 -83.79c0,-162.99 67.19,-292.86 67.04,-486.02 -0.25,-334.61 -72,-269.22 -134.07,-502.77"/>
   <path class="fil0 str0" d="M2597.57 11830.79c0,-372.16 528.44,-1295.69 821.2,-1474.81 125.63,-48.77 148.23,-16.76 268.15,-16.76l134.07 67.04c57.82,144.15 52.41,287.98 184.35,368.7l234.63 -100.56c19.93,-63.97 324.56,-297.78 402.22,-318.42 52.47,135.17 10.07,115.87 111.73,268.15 50.95,76.31 164.64,181.62 173.18,268.14 74.17,31.37 77.19,19.33 100.55,100.56l100.56 0 33.52 -16.76c19.67,-63.16 49.62,-81.09 117.31,-100.55 96.11,-157.1 267.79,-278.76 284.73,-483.74m-930.77 -66.35c-2.52,-1 -5.05,-1.99 -7.57,-2.97 -150.44,-245.9 -225.89,-209.9 -385.46,-553.05 -194.67,-138.69 -159.57,-42.57 -289.41,-301.67 -57.96,-115.64 -149.65,-295.63 38.03,-335.18l-33.53 -553.05"/>
   <path class="fil0 str0" d="M4608.67 8730.34l0 -50.28c-56.89,-48.86 -45.68,-78.05 -33.51,-150.83 66.88,-51.85 126.85,-207.66 134.07,-301.66"/>
   <path class="fil0 str0" d="M5245.52 8344.88c21.56,114.1 18.46,250.66 -83.79,318.42 -56.36,-121.18 -71.25,-316.16 -201.11,-402.22l0 -50.27"/>
   <path class="fil0 str0" d="M5161.73 8663.3c-16.78,100.36 -40.94,83.8 83.79,83.8 133.28,-217.84 268.15,-148.58 268.15,-519.53"/>
   <line class="fil0 str0" x1="4608.67" y1="8680.06" x2="4960.62" y2= "8261.08" />
   <path class="fil0 str0" d="M4206.45 9182.84c35.27,-186.66 -68.97,-735.39 117.32,-754.17l117.31 -251.39"/>
   <path class="fil0 str0" d="M4323.77 8428.67c-27.96,80.8 -44.56,74.96 -16.76,150.84 83.65,-63.11 144.26,-205.65 268.15,-217.87l16.76 -50.28"/>
   <line class="fil0 str0" x1="4575.16" y1="8529.23" x2="4575.16" y2= "8361.64" />
   <path class="fil0 str0" d="M5999.69 8579.51l-83.8 83.79 -50.28 -117.31 -67.03 -67.04c70.59,-217.72 83.77,-361.97 -67.04,-553.05"/>
   <path class="fil0 str0" d="M5865.61 8545.99c83.79,-106.16 67.04,-150.34 67.04,-284.91"/>
   <path class="fil0 str0" d="M5245.52 8747.1c76.47,28.01 100.29,-0.87 184.35,-16.76 155.68,-3.39 256.68,-139.37 368.71,-251.39"/>
   <line class="fil0 str0" x1="5429.87" y1="8730.34" x2="5597.46" y2= "8529.23" />
   <path class="fil0 str0" d="M6016.45 9233.11c-4.94,-12.71 -100.26,-555.83 -100.56,-569.81"/>
   <line class="fil0 str0" x1="4156.17" y1="9249.87" x2="3988.59" y2= "9132.56" />
   <path class="fil0 str0" d="M6016.45 9383.95l-16.76 184.35 -33.52 167.59c180.59,-3.94 434.43,-454.07 217.86,-586.57"/>
   <line class="fil0 str0" x1="6100.24" y1="9417.47" x2="6083.48" y2= "9383.95" />
   <path class="fil0 str0" d="M5999.69 9568.3c95.5,-2.08 64.27,16.89 100.55,-67.04"/>
   <path class="fil0 str0" d="M5966.17 9735.89c-134.29,388.07 -173.57,323.28 -385.47,636.85 108.49,66.37 205.14,255.32 335.19,268.15 139.08,-85.1 648.29,-855.76 737.4,-1022.32"/>
   <path class="fil0 str0" d="M5915.89 10640.89l67.04 100.55 67.03 0c133.96,-275.18 730.3,-809.94 1022.31,-871.48"/>
   <path class="fil0 str0" d="M3871.27 9719.13l0 234.63c-3.85,-2.62 -523.2,-1020.07 -536.3,-1089.35"/>
   <path class="fil0 str0" d="M3820.99 10406.26c73.58,-103.28 50.28,-315.46 50.28,-452.5"/>
   <path class="fil0 str0" d="M3284.7 9585.06l184.35 67.04c-30.56,-145.04 -303.85,-324.15 -435.74,-351.95"/>
   <path class="fil0 str0" d="M3452.29 9903.48l150.83 117.32c45.41,-123.94 -39.77,-274.4 -134.07,-368.7"/>
   <line class="fil0 str0" x1="3686.92" y1="10339.22" x2="3603.12" y2= "10020.8" />
   <path class="fil0 str0" d="M5061.17 11093.39l-16.76 234.62c-123.89,75.8 -121.62,164.03 -284.91,167.59 -121.27,-134.54 5.53,-172.2 16.76,-318.42l-247.56 205.35c-211.95,-142.17 -214.02,-515.66 -288.73,-708.13"/>
   <path class="fil0 str0" d="M7239.86 11395.05l-67.03 201.11c107.95,151.54 -142.73,389.2 117.31,284.9 12.16,-123.23 154.32,-350.42 -50.28,-486.01 0,-157.21 -13.12,-286.63 -167.59,-351.95 0,-140.47 -125.47,-174.35 -251.38,-251.38 -215.66,0 -199.77,-67.04 -402.23,-67.04 29.7,-301.17 649.67,-676.2 1005.56,-553.05"/>
   <path class="fil0 str0" d="M6049.96 10741.44c49.06,65.04 127.33,98.58 217.87,100.56l150.83 -117.32"/>
   <path class="fil0 str0" d="M5128.21 10992.83l83.79 368.7c103.65,32.29 121.92,147.65 268.15,150.83 106.52,-149.51 -56.29,-262.36 -67.03,-402.22 144.69,30.5 220.74,168.21 335.18,201.11 219.94,-134.56 167.61,-397.18 234.63,-569.81"/>
   <path class="fil0 str0" d="M5279.04 10875.52c250.47,116.47 240.32,128.08 469.26,268.14 85.13,-107.86 125.76,-236.02 150.83,-368.7"/>
   <path class="fil0 str0" d="M3485.81 11059.87l0 50.27c137.37,-10.55 184.04,-133.76 301.66,-167.59 249.91,105.68 53.69,270.88 167.59,368.7 233.38,-68.6 106.57,-395.96 50.28,-536.29"/>
   <path class="fil0 str0" d="M4927.1 10892.27c-135.22,78.05 -233.79,125.08 -385.46,217.87l-150.84 -284.9"/>
   <path class="fil0 str0" d="M6401.9 10875.52l117.32 100.55c-18.68,189.45 -201.27,20.49 -251.39,-134.07"/>
   <path class="fil0 str0" d="M6753.85 11244.22l50.27 16.75c-31.3,74.05 -34.5,93.51 -117.31,117.32 -43.24,-111.38 57.34,-192.21 67.04,-318.42 -128.65,-12.69 -69.45,-83.8 -234.63,-83.8"/>
   <line class="fil0 str0" x1="5413.12" y1="11110.14" x2="5161.73" y2= "10976.07" />
   <path class="fil0 str0" d="M2916 11512.36c49.95,42.91 100.55,218.25 100.55,301.67l-67.03 33.52c-68.65,-86.98 -122.29,-261.21 -33.52,-335.19 0,-122.49 4.74,-219.48 117.31,-268.14 27.9,-104.98 95.39,-206.69 201.11,-251.39 88.09,-149.3 83.04,-134.07 234.63,-134.07"/>
   <path class="fil0 str0" d="M3485.81 11110.14c-86.53,266.85 93.95,380.64 33.52,536.3 -129.07,-37.12 -126.46,-179.7 -234.63,-251.39 -0.61,-27.87 -50.27,-402.2 -50.28,-402.22"/>
   <line class="fil0 str0" x1="4776.26" y1="11177.18" x2="5027.65" y2= "10992.83" />
   <line class="fil0 str0" x1="6753.85" y1="11059.87" x2="6770.61" y2= "11009.59" />
   <path class="fil0 str0" d="M6804.12 11260.97l50.28 0c27.82,139.62 -127.06,237.41 -33.51,368.71l184.34 -167.59c11.14,-144.97 67.04,-193.21 67.04,-418.99"/>
   <line class="fil0 str0" x1="6854.4" y1="11260.97" x2="6921.44" y2= "11093.39" />
   <path class="fil0 str0" d="M3184.14 11696.72l16.76 134.07c180.63,58.56 166.02,-134.07 -16.76,-134.07 -126.21,-159.92 -89.03,-293.31 -150.83,-452.5"/>
   <path class="fil0 str0" d="M5161.73 11914.58l-33.52 -100.55c31.46,-81.07 -48.11,-398.97 -83.8,-486.02"/>
   <line class="fil0 str0" x1="5212" y1="11495.6" x2="5212" y2= "11361.53" />
   <path class="fil0 str0" d="M3301.46 11629.68c-15.08,-79.8 -44.9,-162.15 -16.76,-234.63"/>
   <path class="fil0 str0" d="M7172.83 11596.16l-192.15 209.03c-90.77,-126.36 66.18,-209.41 24.55,-343.1"/>
   <path class="fil0 str0" d="M5128.21 11814.03l-154.48 112.56c-36.73,129.26 -47.25,165.53 3.64,289.66l255.82 -247.09 -4.43 -389.76"/>
   <path class="fil0 str0" d="M1809.89 13171.52c0,778.38 -79.46,910.22 340.84,1592.12 477.46,774.65 497.12,644.04 497.12,1608.89 -344.86,0 -412.16,49.88 -703.89,150.83 -113.69,-189.83 -226.88,-414.42 -302.15,-620.09 -49.73,-135.93 -121.44,-548.16 -217.38,-620.09 -122.29,-377.16 16.76,-2916.38 16.76,-3502.67"/>
   <path class="fil0 str0" d="M3200.9 11830.79c-5.16,236.75 -100.36,7.93 -184.35,-16.76"/>
   <path class="fil0 str0" d="M3368.49 15501.05c23.3,-123.3 228.3,-455.41 368.71,-469.26 80.84,208.26 78.27,229.12 5.7,435.74 -38.61,109.9 -120.54,378.56 -206.81,435.74l-134.08 -150.83 -52.49 -234.12c-208.23,-61.03 -505.87,-694.93 -567.73,-888.75 -58.44,-183.05 -150.57,-719.55 -150.72,-921.75 -0.3,-396.82 109.98,-579.84 167.68,-921.76 31.25,-185.17 150.77,-803.53 150.77,-938.51"/>
   <polyline class="fil0 str0" points="7692.36,12953.65 7642.08,12987.17 7290.14,11881.06 "/>
   <line class="fil0 str0" x1="7692.36" y1="13473.19" x2="7642.08" y2= "12987.17" />
   <path class="fil0 str0" d="M7055.51 12869.86c-61.58,102.82 -105.01,182.34 -217.86,251.39l-167.6 16.76 0 -921.76"/>
   <path class="fil0 str0" d="M6603.02 14663.09c86.95,-216.81 22.14,-529.7 -0.55,-754.17 -12.64,-124.93 33.07,-267.85 56.64,-385.46 30.28,-151.06 -30.73,-278.1 10.94,-385.45"/>
   <path class="fil0 str0" d="M8077.82 15266.42c0,-218.59 -224.54,-1659.6 -301.66,-1793.23"/>
   <path class="fil0 str0" d="M3050.07 13473.19c275.34,0 356.92,156.38 502.77,167.59 62.86,-108.9 80.7,-410.72 83.8,-553.05"/>
   <line class="fil0 str0" x1="3569.6" y1="13774.85" x2="3552.84" y2= "13640.78" />
   <path class="fil0 str0" d="M3737.2 15031.79c0,-128.44 -65.04,-304.25 -33.52,-385.46"/>
   <path class="fil0 str0" d="M6887.92 15517.81c-56.27,97.5 -76.18,257.84 -167.59,318.42 -67.43,-52.26 -172.24,-305.69 -212.21,-402.22 -77.91,-188.12 -56.56,-237.44 27.86,-418.98"/>
   <path class="fil0 str0" d="M2647.85 16372.53l653.61 0 284.9 50.27m3133.97 0c332.65,-25.55 543.37,-16.76 871.48,-16.76 0,-95.46 -154.85,-483.17 -183.09,-653.6 -22.16,-133.76 -24.55,-587.25 -101.82,-653.61"/>
   <path class="fil0 str0" d="M1943.96 16523.36l-67.03 134.07c-219.15,-4.77 -340.05,-188.37 -469.26,-201.11 -52.37,-102.04 -42.28,-1090.27 16.76,-1173.14"/>
   <path class="fil0 str0" d="M3301.46 16372.53c25.92,-137.2 68.83,-522.24 100.55,-620.09"/>
   <path class="fil0 str0" d="M6720.33 16422.8c5.13,-235.48 48.15,-331.75 0,-586.57"/>
   <line class="fil0 str0" x1="3586.36" y1="16422.8" x2="3536.09" y2= "15903.27" />
   <line class="fil0 str0" x1="8061.06" y1="16489.84" x2="7591.81" y2= "16406.04" />
   <path class="fil0 str1" d="M4603.12 10287.16c7.44,11.77 14.87,23.53 37.39,45.91 22.52,22.39 60.12,55.38 103.84,88.1 43.72,32.72 93.57,65.16 140.12,88.43 46.55,23.28 89.82,37.39 129.31,47.03 39.5,9.64 75.24,14.81 115.2,14.81 39.98,0 84.18,-5.17 127.44,-14.81 43.26,-9.64 85.58,-23.75 121.55,-40.2 35.98,-16.46 65.6,-35.27 92.88,-52.44 27.27,-17.16 52.19,-32.68 72.57,-51.23 20.39,-18.54 36.23,-40.13 55.35,-66.47 19.13,-26.33 41.54,-57.41 63.94,-88.5"/>
  </g>
 </g>
</svg>
